<svg width="325" height="58" viewBox="0 0 325 58" fill="none" xmlns="http://www.w3.org/2000/svg">
<path d="M43.3405 48.824C42.7645 48.824 42.2045 48.552 41.6605 48.008C41.1165 47.464 40.8445 46.904 40.8445 46.328V46.088C41.8045 40.36 43.6445 35.24 46.3645 30.728C49.0845 26.184 52.6205 22.024 56.9725 18.248C57.0045 18.216 57.0525 18.2 57.1165 18.2C57.3085 18.2 57.4045 18.296 57.4045 18.488C57.4045 18.552 57.3725 18.648 57.3085 18.776C56.2525 19.832 55.1805 21.16 54.0925 22.76C53.0045 24.36 51.9645 26.072 50.9725 27.896C49.9805 29.72 49.0845 31.512 48.2845 33.272C47.5165 35.032 46.8925 36.616 46.4125 38.024C46.0925 38.984 45.7885 39.944 45.5005 40.904C45.2125 41.864 45.0205 42.856 44.9245 43.88V44.12C44.9245 44.312 45.0205 44.408 45.2125 44.408C45.4685 44.408 45.8045 44.296 46.2205 44.072C46.6685 43.816 47.1005 43.56 47.5165 43.304C47.9645 43.016 48.2845 42.808 48.4765 42.68C50.6845 41.272 52.8445 39.992 54.9565 38.84C57.1005 37.656 59.1645 36.44 61.1485 35.192C63.1325 33.944 65.0685 32.568 66.9565 31.064C68.8445 29.528 70.6525 27.736 72.3805 25.688C73.2125 24.728 73.9805 23.624 74.6845 22.376C75.4205 21.128 76.0125 19.832 76.4605 18.488C76.9085 17.144 77.1325 15.832 77.1325 14.552C77.1325 13.912 77.0525 13.336 76.8925 12.824C76.7645 12.28 76.5085 11.752 76.1245 11.24C76.0605 11.176 76.0285 11.096 76.0285 11C76.0285 10.776 76.1565 10.664 76.4125 10.664C76.4765 10.664 76.5725 10.696 76.7005 10.76C77.4365 11.592 77.9485 12.568 78.2365 13.688C78.5565 14.808 78.7165 15.928 78.7165 17.048C78.7165 18.648 78.4285 20.232 77.8525 21.8C77.2765 23.336 76.4605 24.712 75.4045 25.928C73.5805 28.072 71.5965 29.96 69.4525 31.592C67.3405 33.192 65.1325 34.648 62.8285 35.96C60.5245 37.272 58.1725 38.568 55.7725 39.848C53.4045 41.096 51.0685 42.456 48.7645 43.928C47.9005 44.472 46.9885 45.096 46.0285 45.8C45.0685 46.504 44.3805 47.352 43.9645 48.344C43.8685 48.664 43.6605 48.824 43.3405 48.824ZM29.6605 35.048C28.9885 35.048 28.3005 34.888 27.5965 34.568C26.4125 34.024 25.4845 33.288 24.8125 32.36C24.1725 31.4 23.8525 30.28 23.8525 29C23.8525 26.76 24.3645 24.792 25.3885 23.096C26.4125 21.368 27.7725 19.896 29.4685 18.68C31.1645 17.464 33.0365 16.488 35.0845 15.752C37.1645 14.984 39.2605 14.424 41.3725 14.072C43.4845 13.72 45.4525 13.544 47.2765 13.544C50.0605 13.544 52.8445 13.864 55.6285 14.504C58.4445 15.144 61.1805 15.864 63.8365 16.664C64.8605 16.952 66.0445 17.272 67.3885 17.624C68.7325 17.976 69.9325 18.152 70.9885 18.152C71.4365 18.152 71.7725 18.088 71.9965 17.96C72.2525 17.832 72.4285 17.768 72.5245 17.768C72.6205 17.768 72.6685 17.816 72.6685 17.912C72.6685 18.04 72.6205 18.152 72.5245 18.248C72.4605 18.312 72.3805 18.376 72.2845 18.44C71.4845 19.048 70.7965 19.528 70.2205 19.88C69.6445 20.2 68.7965 20.36 67.6765 20.36C67.0045 20.36 66.3325 20.296 65.6605 20.168C65.0205 20.04 64.3805 19.88 63.7405 19.688C61.5645 19.016 59.3885 18.344 57.2125 17.672C55.0365 16.968 52.8445 16.376 50.6365 15.896C48.4285 15.416 46.1565 15.176 43.8205 15.176C41.9005 15.176 39.9165 15.432 37.8685 15.944C35.8205 16.424 33.9325 17.176 32.2045 18.2C30.4765 19.224 29.0685 20.552 27.9805 22.184C26.9245 23.816 26.3965 25.768 26.3965 28.04C26.3965 28.616 26.4285 29.288 26.4925 30.056C26.5885 30.792 26.7485 31.512 26.9725 32.216C27.2285 32.92 27.5805 33.496 28.0285 33.944C28.5085 34.392 29.1485 34.616 29.9485 34.616C30.0125 34.616 30.0925 34.632 30.1885 34.664C30.2845 34.664 30.3325 34.712 30.3325 34.808C30.3325 34.904 30.2365 34.968 30.0445 35C29.8525 35.032 29.7245 35.048 29.6605 35.048ZM41.0365 37.592C41.0045 37.592 40.9725 37.56 40.9405 37.496C40.9405 37.432 40.9405 37.384 40.9405 37.352C40.9405 37.16 40.9565 36.984 40.9885 36.824C41.0525 36.632 41.1005 36.456 41.1325 36.296C41.5165 34.824 41.8205 33.304 42.0445 31.736C42.3005 30.136 42.4285 28.584 42.4285 27.08C42.4285 26.792 42.4125 26.44 42.3805 26.024C42.3485 25.576 42.2525 25.192 42.0925 24.872C41.9645 24.552 41.7245 24.392 41.3725 24.392C41.0205 24.392 40.7965 24.52 40.7005 24.776C40.6045 25 40.4765 25.112 40.3165 25.112C40.2525 25.112 40.2205 25.064 40.2205 24.968C40.2205 24.904 40.2525 24.808 40.3165 24.68C40.6045 24.072 41.0045 23.496 41.5165 22.952C42.0605 22.408 42.6845 22.136 43.3885 22.136C43.9965 22.136 44.4285 22.328 44.6845 22.712C44.9725 23.096 45.1485 23.56 45.2125 24.104C45.3085 24.616 45.3565 25.096 45.3565 25.544C45.3565 27.4 44.9885 29.272 44.2525 31.16C43.5165 33.048 42.7485 34.824 41.9485 36.488C41.8845 36.616 41.7565 36.84 41.5645 37.16C41.3725 37.448 41.1965 37.592 41.0365 37.592ZM108.503 51.944C108.375 51.944 108.311 51.896 108.311 51.8C108.311 51.736 108.391 51.528 108.551 51.176C108.711 50.824 108.791 50.488 108.791 50.168C108.791 49.592 108.519 49.144 107.975 48.824C107.463 48.504 106.823 48.264 106.055 48.104C105.319 47.976 104.583 47.88 103.847 47.816C103.143 47.784 102.599 47.752 102.215 47.72C99.9751 47.528 97.7031 47.432 95.3991 47.432C93.6391 47.432 91.8951 47.464 90.1671 47.528C88.4391 47.624 86.6951 47.736 84.9351 47.864C83.6231 47.928 82.2951 48.024 80.9511 48.152C79.6071 48.28 78.2791 48.36 76.9671 48.392C75.8151 49.224 74.5511 49.912 73.1751 50.456C71.7991 51.032 70.3911 51.32 68.9511 51.32C68.3431 51.32 67.7031 51.208 67.0311 50.984C66.3911 50.792 65.8471 50.456 65.3991 49.976C64.9831 49.528 64.7751 48.936 64.7751 48.2C64.7751 47.88 64.8551 47.496 65.0151 47.048C65.1431 46.6 65.3351 46.2 65.5911 45.848C65.8791 45.496 66.2151 45.32 66.5991 45.32C66.4391 45.064 66.2471 44.712 66.0231 44.264C65.7991 43.784 65.6871 43.416 65.6871 43.16C65.6871 43.032 65.7191 42.904 65.7831 42.776C65.8471 42.648 65.9431 42.584 66.0711 42.584C66.1671 42.584 66.2311 42.632 66.2631 42.728C66.3271 42.824 66.3751 42.904 66.4071 42.968C66.4711 43.192 66.5511 43.4 66.6471 43.592C66.7431 43.752 66.8711 43.912 67.0311 44.072C67.6071 44.712 68.4391 45.192 69.5271 45.512C70.6151 45.832 71.7351 46.04 72.8871 46.136C74.0711 46.2 75.0631 46.232 75.8631 46.232H76.0551C76.4071 45.816 76.7431 45.4 77.0631 44.984C77.4151 44.568 77.7511 44.136 78.0711 43.688C79.5751 41.544 80.9991 39.256 82.3431 36.824C83.6871 34.36 85.0311 31.896 86.3751 29.432C87.7511 26.968 89.1911 24.6 90.6951 22.328C92.2311 20.056 93.9111 18.008 95.7351 16.184C94.1991 15.832 92.6311 15.576 91.0311 15.416C89.4631 15.224 87.8951 15.128 86.3271 15.128C84.2791 15.128 82.4071 15.368 80.7111 15.848C79.0151 16.328 77.3671 17.224 75.7671 18.536C74.8391 19.272 73.9271 20.152 73.0311 21.176C72.1671 22.168 71.4631 23.24 70.9191 24.392C70.3751 25.544 70.1031 26.76 70.1031 28.04C70.1031 28.616 70.1351 29.288 70.1991 30.056C70.2951 30.792 70.4551 31.512 70.6791 32.216C70.9351 32.92 71.3031 33.496 71.7831 33.944C72.2631 34.392 72.9031 34.616 73.7031 34.616C73.7671 34.616 73.8311 34.632 73.8951 34.664C73.9911 34.664 74.0391 34.712 74.0391 34.808C74.0391 34.904 73.9431 34.968 73.7511 35C73.5911 35.032 73.4791 35.048 73.4151 35.048C72.7431 35.048 72.0551 34.888 71.3511 34.568C70.1671 34.024 69.2391 33.288 68.5671 32.36C67.9271 31.4 67.6071 30.28 67.6071 29C67.6071 27.176 67.9751 25.544 68.7111 24.104C69.4471 22.664 70.4231 21.384 71.6391 20.264C72.8871 19.112 74.2471 18.104 75.7191 17.24C77.2231 16.376 78.7111 15.64 80.1831 15.032C81.6231 14.424 83.1111 14.008 84.6471 13.784C86.2151 13.56 87.7831 13.448 89.3511 13.448C90.7591 13.448 92.1831 13.528 93.6231 13.688C95.0631 13.816 96.4711 14.008 97.8471 14.264C99.3511 13.048 100.983 12.088 102.743 11.384C104.535 10.648 106.407 10.28 108.359 10.28C108.935 10.28 109.575 10.344 110.279 10.472C110.983 10.6 111.591 10.856 112.103 11.24C112.615 11.592 112.871 12.152 112.871 12.92C112.871 13.048 112.823 13.32 112.727 13.736C112.631 14.12 112.503 14.488 112.343 14.84C112.183 15.192 112.023 15.368 111.863 15.368C111.799 15.368 111.767 15.32 111.767 15.224C111.767 15.032 111.799 14.856 111.863 14.696C111.927 14.504 111.959 14.296 111.959 14.072C111.959 13.304 111.623 12.728 110.951 12.344C110.311 11.96 109.575 11.704 108.743 11.576C107.911 11.448 107.207 11.384 106.631 11.384C105.159 11.384 103.799 11.672 102.551 12.248C101.303 12.792 100.135 13.544 99.0471 14.504C100.487 14.792 101.911 15.128 103.319 15.512C104.759 15.864 106.183 16.248 107.591 16.664C108.615 16.952 109.799 17.272 111.143 17.624C112.487 17.976 113.687 18.152 114.743 18.152C115.127 18.152 115.447 18.088 115.703 17.96C115.959 17.832 116.151 17.768 116.279 17.768C116.375 17.768 116.423 17.816 116.423 17.912C116.423 18.04 116.375 18.152 116.279 18.248C116.215 18.312 116.135 18.376 116.039 18.44C115.239 19.048 114.551 19.528 113.975 19.88C113.399 20.2 112.551 20.36 111.431 20.36C110.759 20.36 110.087 20.296 109.415 20.168C108.775 20.04 108.135 19.88 107.495 19.688C105.767 19.176 104.055 18.632 102.359 18.056C100.663 17.48 98.9351 16.968 97.1751 16.52C96.1831 17.8 95.2071 19.336 94.2471 21.128C93.3191 22.888 92.4231 24.68 91.5591 26.504C90.7271 28.328 89.9431 29.992 89.2071 31.496L89.6391 31.544C89.7991 31.576 89.9431 31.592 90.0711 31.592C90.1991 31.592 90.3271 31.592 90.4551 31.592C91.6711 31.592 92.8711 31.384 94.0551 30.968C95.2711 30.552 96.5191 30.136 97.7991 29.72C99.0791 29.304 100.407 29.096 101.783 29.096C102.263 29.096 102.775 29.144 103.319 29.24C103.895 29.304 104.391 29.48 104.807 29.768C105.223 30.056 105.431 30.52 105.431 31.16C105.431 31.864 105.127 32.472 104.519 32.984C103.943 33.496 103.367 33.88 102.791 34.136C102.663 34.2 102.567 34.232 102.503 34.232C102.407 34.232 102.359 34.2 102.359 34.136C102.359 33.976 102.487 33.848 102.743 33.752C102.999 33.656 103.127 33.432 103.127 33.08C103.127 32.696 102.935 32.44 102.551 32.312C102.167 32.152 101.751 32.056 101.303 32.024C100.855 31.992 100.503 31.976 100.247 31.976C99.0311 31.976 97.8151 32.008 96.5991 32.072C95.3831 32.136 94.1671 32.168 92.9511 32.168C92.3111 32.168 91.6551 32.152 90.9831 32.12C90.3111 32.088 89.6551 32.04 89.0151 31.976C87.7991 34.504 86.4391 37 84.9351 39.464C83.4311 41.896 81.6711 44.104 79.6551 46.088C82.9191 45.864 86.1671 45.56 89.3991 45.176C92.6311 44.76 95.8951 44.552 99.1911 44.552C100.023 44.552 101.047 44.584 102.263 44.648C103.479 44.712 104.679 44.872 105.863 45.128C107.047 45.384 108.039 45.8 108.839 46.376C109.671 46.92 110.087 47.704 110.087 48.728C110.087 48.984 110.023 49.368 109.895 49.88C109.767 50.424 109.591 50.904 109.367 51.32C109.143 51.736 108.855 51.944 108.503 51.944ZM79.9431 37.592C79.9111 37.592 79.8791 37.56 79.8471 37.496C79.8471 37.432 79.8471 37.384 79.8471 37.352C79.8471 37.16 79.8631 36.984 79.8951 36.824C79.9591 36.632 80.0071 36.456 80.0391 36.296C80.3911 34.856 80.6951 33.368 80.9511 31.832C81.2071 30.264 81.3351 28.744 81.3351 27.272C81.3351 27.016 81.3191 26.664 81.2871 26.216C81.2551 25.768 81.1591 25.352 80.9991 24.968C80.8711 24.584 80.6311 24.392 80.2791 24.392C79.9271 24.392 79.7031 24.52 79.6071 24.776C79.5111 25 79.3831 25.112 79.2231 25.112C79.1591 25.112 79.1271 25.064 79.1271 24.968C79.1271 24.904 79.1591 24.808 79.2231 24.68C79.4791 24.072 79.8791 23.496 80.4231 22.952C80.9671 22.408 81.5911 22.136 82.2951 22.136C82.8711 22.136 83.3031 22.328 83.5911 22.712C83.8791 23.096 84.0551 23.56 84.1191 24.104C84.2151 24.616 84.2631 25.096 84.2631 25.544C84.2631 27.4 83.8791 29.272 83.1111 31.16C82.3751 33.048 81.6071 34.824 80.8071 36.488C80.7751 36.616 80.6471 36.84 80.4231 37.16C80.2311 37.448 80.0711 37.592 79.9431 37.592ZM69.1431 50.264C70.0071 50.264 70.8391 50.056 71.6391 49.64C72.4391 49.256 73.1591 48.808 73.7991 48.296C72.6151 48.2 71.3831 47.976 70.1031 47.624C68.8551 47.272 67.8151 46.648 66.9831 45.752C66.7911 46.136 66.5991 46.488 66.4071 46.808C66.2151 47.128 66.1191 47.512 66.1191 47.96C66.1191 48.76 66.4391 49.336 67.0791 49.688C67.7511 50.072 68.4391 50.264 69.1431 50.264ZM158.522 55.208C156.378 55.208 154.154 54.888 151.85 54.248C149.546 53.64 147.226 52.824 144.89 51.8C142.586 50.808 140.346 49.736 138.17 48.584C135.994 47.464 133.994 46.408 132.17 45.416C130.634 46.984 128.938 48.312 127.082 49.4C125.226 50.52 123.162 51.08 120.89 51.08C120.25 51.08 119.578 50.968 118.874 50.744C118.17 50.552 117.578 50.216 117.098 49.736C116.65 49.256 116.426 48.632 116.426 47.864C116.426 47.416 116.57 46.92 116.858 46.376C117.146 45.8 117.562 45.512 118.106 45.512C118.33 45.512 118.442 45.592 118.442 45.752C118.442 45.816 118.426 45.88 118.394 45.944C118.362 45.976 118.33 46.024 118.298 46.088C118.106 46.472 117.994 46.792 117.962 47.048C117.93 47.336 117.914 47.688 117.914 48.104C117.914 48.904 118.266 49.448 118.97 49.736C119.706 50.056 120.41 50.216 121.082 50.216C122.138 50.216 123.242 49.88 124.394 49.208C125.578 48.568 126.682 47.8 127.706 46.904C128.762 45.976 129.61 45.112 130.25 44.312C129.386 43.832 128.314 43.224 127.034 42.488C125.786 41.72 124.458 40.968 123.05 40.232C121.674 39.464 120.33 38.84 119.018 38.36C117.738 37.848 116.634 37.592 115.706 37.592C114.65 37.592 113.994 37.88 113.738 38.456C113.482 39 113.354 39.72 113.354 40.616C113.354 41.512 113.466 42.568 113.69 43.784C113.914 45 114.282 45.992 114.794 46.76C114.858 46.824 114.906 46.904 114.938 47C115.002 47.096 115.034 47.192 115.034 47.288C115.034 47.448 114.954 47.528 114.794 47.528C114.666 47.528 114.538 47.48 114.41 47.384C114.314 47.288 114.234 47.208 114.17 47.144C113.402 46.344 112.778 45.352 112.298 44.168C111.85 42.984 111.626 41.848 111.626 40.76C111.626 39.672 111.85 38.68 112.298 37.784C112.746 36.856 113.386 36.12 114.218 35.576C115.05 35 116.026 34.712 117.146 34.712C118.298 34.712 119.466 34.968 120.65 35.48C121.866 35.96 122.97 36.472 123.962 37.016C125.338 37.752 126.698 38.52 128.042 39.32C129.386 40.088 130.746 40.84 132.122 41.576C133.594 39.304 134.922 36.936 136.106 34.472C137.322 32.008 138.57 29.592 139.85 27.224C140.714 25.624 141.642 23.928 142.634 22.136C143.658 20.312 144.778 18.584 145.994 16.952C147.242 15.32 148.65 13.944 150.218 12.824C151.818 11.704 153.642 11.032 155.69 10.808C155.85 10.776 156.026 10.76 156.218 10.76C156.41 10.76 156.602 10.76 156.794 10.76C158.426 10.76 160.01 11.128 161.546 11.864C163.082 12.568 164.202 13.704 164.906 15.272C165.066 15.592 165.194 15.96 165.29 16.376C165.386 16.792 165.434 17.176 165.434 17.528C165.434 17.912 165.29 18.104 165.002 18.104C164.778 18.104 164.634 17.976 164.57 17.72C164.538 17.464 164.49 17.224 164.426 17C164.394 16.744 164.314 16.488 164.186 16.232C163.834 15.464 163.29 14.84 162.554 14.36C161.85 13.848 161.066 13.48 160.202 13.256C159.37 13 158.554 12.872 157.754 12.872C157.274 12.872 156.794 12.92 156.314 13.016C154.49 13.432 152.874 14.264 151.466 15.512C150.09 16.76 148.858 18.232 147.77 19.928C146.714 21.592 145.738 23.32 144.842 25.112C143.978 26.872 143.146 28.488 142.346 29.96C141.13 32.168 139.898 34.376 138.65 36.584C137.402 38.792 135.994 40.888 134.426 42.872C136.154 43.832 138.138 44.92 140.378 46.136C142.65 47.352 145.002 48.52 147.434 49.64C149.898 50.76 152.314 51.688 154.682 52.424C157.082 53.16 159.306 53.528 161.354 53.528C162.218 53.528 163.082 53.4 163.946 53.144C164.81 52.92 165.514 52.52 166.058 51.944C166.634 51.368 166.922 50.552 166.922 49.496C166.922 48.44 166.602 47.4 165.962 46.376C165.322 45.32 164.49 44.616 163.466 44.264C163.37 44.264 163.322 44.232 163.322 44.168C163.322 44.072 163.402 43.992 163.562 43.928C163.722 43.864 163.834 43.832 163.898 43.832C164.058 43.832 164.234 43.864 164.426 43.928C164.65 43.992 164.826 44.056 164.954 44.12C165.914 44.536 166.73 45.256 167.402 46.28C168.074 47.272 168.41 48.28 168.41 49.304C168.41 50.456 168.058 51.416 167.354 52.184C166.682 52.952 165.818 53.544 164.762 53.96C163.738 54.408 162.65 54.728 161.498 54.92C160.378 55.112 159.386 55.208 158.522 55.208ZM134.618 34.088C134.586 34.088 134.554 34.056 134.522 33.992C134.522 33.928 134.522 33.88 134.522 33.848C134.522 33.656 134.538 33.48 134.57 33.32C134.634 33.128 134.682 32.952 134.714 32.792C135.098 31.32 135.402 29.8 135.626 28.232C135.882 26.632 136.01 25.08 136.01 23.576C136.01 23.288 135.994 22.936 135.962 22.52C135.93 22.072 135.834 21.688 135.674 21.368C135.546 21.048 135.306 20.888 134.954 20.888C134.602 20.888 134.378 21.016 134.282 21.272C134.186 21.496 134.058 21.608 133.898 21.608C133.834 21.608 133.802 21.56 133.802 21.464C133.802 21.4 133.834 21.304 133.898 21.176C134.186 20.568 134.586 19.992 135.098 19.448C135.642 18.904 136.266 18.632 136.97 18.632C137.578 18.632 138.01 18.824 138.266 19.208C138.554 19.592 138.73 20.056 138.794 20.6C138.89 21.112 138.938 21.592 138.938 22.04C138.938 23.896 138.57 25.768 137.834 27.656C137.098 29.544 136.33 31.32 135.53 32.984C135.466 33.112 135.338 33.336 135.146 33.656C134.954 33.944 134.778 34.088 134.618 34.088ZM148.298 57.944C148.202 57.944 148.122 57.896 148.058 57.8C147.322 56.968 146.794 55.976 146.474 54.824C146.186 53.704 146.042 52.616 146.042 51.56C146.042 49.928 146.33 48.344 146.906 46.808C147.482 45.24 148.282 43.848 149.306 42.632C151.194 40.424 153.354 38.408 155.786 36.584C158.25 34.76 160.842 33.048 163.562 31.448C166.282 29.848 169.002 28.296 171.722 26.792C174.442 25.288 177.018 23.768 179.45 22.232C180.122 21.784 180.794 21.336 181.466 20.888C182.138 20.408 182.746 19.88 183.29 19.304C181.242 18.664 179.194 18.04 177.146 17.432C175.098 16.792 173.034 16.264 170.954 15.848C168.874 15.4 166.746 15.176 164.57 15.176C162.65 15.176 160.666 15.432 158.618 15.944C156.57 16.424 154.666 17.176 152.906 18.2C151.178 19.224 149.77 20.552 148.682 22.184C147.626 23.816 147.098 25.768 147.098 28.04C147.098 28.616 147.13 29.288 147.194 30.056C147.29 30.792 147.45 31.512 147.674 32.216C147.93 32.92 148.298 33.496 148.778 33.944C149.258 34.392 149.898 34.616 150.698 34.616C150.762 34.616 150.826 34.632 150.89 34.664C150.986 34.664 151.034 34.712 151.034 34.808C151.034 34.904 150.938 34.968 150.746 35C150.586 35.032 150.474 35.048 150.41 35.048C149.738 35.048 149.05 34.888 148.346 34.568C147.162 34.056 146.234 33.32 145.562 32.36C144.922 31.4 144.602 30.28 144.602 29C144.602 26.76 145.114 24.792 146.138 23.096C147.162 21.368 148.522 19.896 150.218 18.68C151.914 17.464 153.786 16.488 155.834 15.752C157.914 14.984 160.01 14.424 162.122 14.072C164.234 13.72 166.202 13.544 168.026 13.544C170.81 13.544 173.594 13.864 176.378 14.504C179.194 15.144 181.93 15.864 184.586 16.664C185.61 16.952 186.794 17.272 188.138 17.624C189.482 17.976 190.682 18.152 191.738 18.152C192.186 18.152 192.522 18.088 192.746 17.96C193.002 17.832 193.178 17.768 193.274 17.768C193.37 17.768 193.418 17.816 193.418 17.912C193.418 18.04 193.37 18.152 193.274 18.248C193.21 18.312 193.13 18.376 193.034 18.44C192.234 19.048 191.546 19.528 190.97 19.88C190.394 20.2 189.546 20.36 188.426 20.36C188.234 20.36 188.042 20.36 187.85 20.36C187.69 20.36 187.514 20.344 187.322 20.312C186.618 24.984 185.178 29.368 183.002 33.464C180.826 37.528 178.074 41.256 174.746 44.648C175.098 44.456 175.594 44.184 176.234 43.832C176.874 43.448 177.562 43.064 178.298 42.68C179.066 42.296 179.77 41.976 180.41 41.72C181.082 41.464 181.594 41.336 181.946 41.336C182.042 41.336 182.138 41.352 182.234 41.384C182.362 41.416 182.426 41.48 182.426 41.576C182.426 41.64 182.378 41.688 182.282 41.72C182.186 41.752 182.106 41.784 182.042 41.816C180.986 42.04 180.01 42.472 179.114 43.112C178.218 43.752 177.402 44.472 176.666 45.272C176.474 45.496 176.186 45.832 175.802 46.28C175.418 46.696 175.002 47.128 174.554 47.576C174.106 48.056 173.658 48.456 173.21 48.776C172.794 49.096 172.442 49.256 172.154 49.256C171.77 49.256 171.434 49.08 171.146 48.728C170.858 48.376 170.714 48.024 170.714 47.672C170.714 47.288 170.842 47.048 171.098 46.952C171.386 46.824 171.642 46.648 171.866 46.424C172.282 46.04 172.762 45.448 173.306 44.648C173.85 43.848 174.282 43.192 174.602 42.68C175.562 41.208 176.538 39.656 177.53 38.024C178.554 36.36 179.498 34.648 180.362 32.888C181.226 31.128 181.93 29.352 182.474 27.56C183.018 25.768 183.29 24.008 183.29 22.28V22.04C183.29 21.848 183.194 21.752 183.002 21.752C182.778 21.752 182.442 21.88 181.994 22.136C181.546 22.36 181.114 22.616 180.698 22.904C180.282 23.16 179.962 23.352 179.738 23.48C177.37 24.952 174.954 26.408 172.49 27.848C170.058 29.256 167.642 30.712 165.242 32.216C162.842 33.688 160.538 35.304 158.33 37.064C156.154 38.792 154.154 40.744 152.33 42.92C151.53 43.88 150.762 44.984 150.026 46.232C149.29 47.448 148.698 48.728 148.25 50.072C147.802 51.448 147.578 52.776 147.578 54.056C147.578 54.664 147.642 55.224 147.77 55.736C147.93 56.28 148.202 56.808 148.586 57.32C148.65 57.384 148.682 57.464 148.682 57.56C148.682 57.816 148.554 57.944 148.298 57.944ZM174.746 36.728C174.682 36.728 174.65 36.696 174.65 36.632C174.65 36.472 174.762 36.344 174.986 36.248C175.21 36.152 175.322 35.944 175.322 35.624C175.322 35.176 175.066 34.904 174.554 34.808C174.042 34.68 173.626 34.616 173.306 34.616C172.954 34.616 172.602 34.632 172.25 34.664C171.898 34.696 171.546 34.744 171.194 34.808C169.53 35 167.866 35.192 166.202 35.384C164.538 35.576 162.858 35.672 161.162 35.672C161.098 35.672 161.002 35.656 160.874 35.624C160.746 35.592 160.682 35.528 160.682 35.432C160.682 35.336 160.746 35.272 160.874 35.24C161.002 35.208 161.098 35.192 161.162 35.192C162.186 35.192 163.226 35.016 164.282 34.664C165.37 34.312 166.458 33.896 167.546 33.416C168.666 32.936 169.802 32.52 170.954 32.168C172.106 31.816 173.306 31.64 174.554 31.64C175.194 31.64 175.834 31.752 176.474 31.976C177.146 32.2 177.482 32.728 177.482 33.56C177.482 34.232 177.21 34.84 176.666 35.384C176.154 35.928 175.626 36.344 175.082 36.632C174.954 36.696 174.842 36.728 174.746 36.728ZM191.982 53C190.83 53 189.63 52.84 188.382 52.52C187.166 52.232 186.142 51.688 185.31 50.888C184.478 50.12 184.062 49.016 184.062 47.576C184.062 46.392 184.334 45.272 184.878 44.216C185.422 43.128 186.11 42.136 186.942 41.24C187.806 40.344 188.686 39.576 189.582 38.936C189.87 38.744 190.334 38.456 190.974 38.072C191.614 37.688 192.318 37.304 193.086 36.92C193.854 36.536 194.558 36.216 195.198 35.96C195.87 35.672 196.382 35.528 196.734 35.528C196.798 35.528 196.83 35.544 196.83 35.576C196.83 35.768 196.638 36.024 196.254 36.344C195.902 36.664 195.646 36.856 195.486 36.92C195.358 36.952 195.214 36.984 195.054 37.016C194.894 37.016 194.734 37.048 194.574 37.112C193.87 37.336 193.15 37.688 192.414 38.168C191.678 38.616 191.022 39.08 190.446 39.56C189.454 40.424 188.558 41.464 187.758 42.68C186.99 43.896 186.606 45.192 186.606 46.568C186.606 47.688 186.91 48.648 187.518 49.448C188.126 50.248 188.894 50.856 189.822 51.272C190.782 51.72 191.774 51.944 192.798 51.944C193.566 51.944 194.334 51.848 195.102 51.656C197.374 51.08 199.55 50.04 201.63 48.536C203.742 47.032 205.726 45.24 207.582 43.16C209.47 41.048 211.214 38.808 212.814 36.44C214.414 34.072 215.854 31.72 217.134 29.384C218.446 27.048 219.566 24.888 220.494 22.904C219.982 21.784 219.358 20.632 218.622 19.448C217.918 18.232 217.102 17.112 216.174 16.088C215.278 15.064 214.254 14.232 213.102 13.592C211.982 12.92 210.718 12.584 209.31 12.584C207.806 12.584 206.558 13 205.566 13.832C204.574 14.632 203.838 15.672 203.358 16.952C202.878 18.2 202.638 19.496 202.638 20.84C202.638 21.64 202.702 22.44 202.83 23.24C202.99 24.04 203.182 24.84 203.406 25.64C203.598 26.344 203.902 27.176 204.318 28.136C204.766 29.064 205.294 29.976 205.902 30.872C206.51 31.768 207.198 32.52 207.966 33.128C208.734 33.704 209.55 33.992 210.414 33.992C210.798 33.992 211.118 33.928 211.374 33.8C211.662 33.64 211.886 33.56 212.046 33.56C212.238 33.56 212.334 33.672 212.334 33.896C212.334 34.12 212.11 34.312 211.662 34.472C211.246 34.632 210.782 34.76 210.27 34.856C209.79 34.952 209.454 35 209.262 35C208.014 35 206.91 34.632 205.95 33.896C204.99 33.16 204.19 32.248 203.55 31.16C202.942 30.072 202.478 29 202.158 27.944C201.934 27.144 201.758 26.344 201.63 25.544C201.534 24.744 201.486 23.944 201.486 23.144C201.486 20.872 201.806 18.856 202.446 17.096C203.086 15.304 204.142 13.896 205.614 12.872C207.118 11.848 209.102 11.336 211.566 11.336C213.294 11.336 214.798 11.736 216.078 12.536C217.358 13.304 218.478 14.312 219.438 15.56C220.43 16.776 221.294 18.072 222.03 19.448L223.326 16.232C223.422 16.008 223.486 15.784 223.518 15.56C223.582 15.336 223.662 15.128 223.758 14.936C223.822 14.84 223.918 14.776 224.046 14.744C224.174 14.68 224.286 14.648 224.382 14.648C224.67 14.648 224.814 14.808 224.814 15.128C224.814 15.352 224.734 15.752 224.574 16.328C224.414 16.872 224.222 17.48 223.998 18.152C223.774 18.824 223.55 19.448 223.326 20.024C223.134 20.568 222.99 20.968 222.894 21.224C223.534 22.536 224.142 23.864 224.718 25.208C225.294 26.552 225.886 27.88 226.494 29.192C227.486 31.24 228.43 33.32 229.326 35.432C230.222 37.544 231.15 39.64 232.11 41.72C233.358 37.688 234.91 33.784 236.766 30.008C238.654 26.2 240.814 22.584 243.246 19.16C244.846 16.952 246.798 15.128 249.102 13.688C251.438 12.216 254.014 11.48 256.83 11.48C257.374 11.48 257.966 11.544 258.606 11.672C259.246 11.8 259.79 12.04 260.238 12.392C260.718 12.712 260.958 13.224 260.958 13.928C260.958 14.056 260.91 14.312 260.814 14.696C260.75 15.048 260.638 15.384 260.478 15.704C260.35 16.024 260.206 16.184 260.046 16.184C259.982 16.184 259.95 16.136 259.95 16.04C259.95 15.88 259.982 15.72 260.046 15.56C260.11 15.368 260.142 15.192 260.142 15.032C260.142 14.392 259.87 13.928 259.326 13.64C258.782 13.32 258.158 13.112 257.454 13.016C256.782 12.92 256.206 12.872 255.726 12.872C255.31 12.872 254.878 12.888 254.43 12.92C254.014 12.952 253.598 13.016 253.182 13.112C251.774 13.464 250.366 14.296 248.958 15.608C247.582 16.92 246.222 18.536 244.878 20.456C243.566 22.376 242.318 24.44 241.134 26.648C239.95 28.856 238.862 31.064 237.87 33.272C236.878 35.48 235.998 37.544 235.23 39.464C234.462 41.384 233.838 42.984 233.358 44.264C233.614 44.744 233.934 45.352 234.318 46.088C234.702 46.824 235.134 47.56 235.614 48.296C236.094 49.032 236.622 49.64 237.198 50.12C237.806 50.6 238.414 50.84 239.022 50.84C239.566 50.84 239.966 50.68 240.222 50.36C240.478 50.072 240.67 49.72 240.798 49.304C240.926 48.888 241.022 48.52 241.086 48.2C241.182 47.912 241.31 47.768 241.47 47.768C241.694 47.768 241.806 47.896 241.806 48.152C241.806 48.248 241.774 48.424 241.71 48.68C241.646 48.936 241.598 49.112 241.566 49.208C241.214 50.2 240.606 51.048 239.742 51.752C238.878 52.456 237.902 52.808 236.814 52.808C235.63 52.808 234.622 52.296 233.79 51.272C232.798 50.024 231.838 48.568 230.91 46.904C230.014 45.24 229.15 43.496 228.318 41.672C227.518 39.848 226.75 38.04 226.014 36.248C225.278 34.456 224.606 32.808 223.998 31.304C223.55 30.216 223.102 29.144 222.654 28.088C222.238 27 221.806 25.928 221.358 24.872C220.462 26.888 219.342 29.064 217.998 31.4C216.686 33.736 215.182 36.072 213.486 38.408C211.822 40.712 209.998 42.872 208.014 44.888C206.062 46.904 203.998 48.6 201.822 49.976C199.646 51.384 197.374 52.312 195.006 52.76C194.526 52.856 194.03 52.92 193.518 52.952C193.006 52.984 192.494 53 191.982 53ZM225.054 40.04C224.99 40.04 224.91 39.96 224.814 39.8C224.718 39.608 224.638 39.496 224.574 39.464C224.414 39.176 224.158 38.76 223.806 38.216C223.454 37.672 223.054 37.112 222.606 36.536C222.158 35.96 221.71 35.48 221.262 35.096C220.814 34.712 220.414 34.52 220.062 34.52C219.774 34.52 219.582 34.632 219.486 34.856C219.39 35.048 219.342 35.272 219.342 35.528C219.342 35.656 219.31 35.736 219.246 35.768C219.118 35.704 219.038 35.528 219.006 35.24C218.974 34.92 218.958 34.696 218.958 34.568C218.958 34.088 219.102 33.56 219.39 32.984C219.71 32.408 220.174 32.12 220.782 32.12C220.974 32.12 221.166 32.168 221.358 32.264C221.55 32.328 221.726 32.424 221.886 32.552C222.846 33.256 223.534 34.232 223.95 35.48C224.398 36.728 224.782 37.912 225.102 39.032C225.134 39.128 225.15 39.224 225.15 39.32C225.182 39.416 225.198 39.528 225.198 39.656C225.198 39.688 225.182 39.768 225.15 39.896C225.15 39.992 225.118 40.04 225.054 40.04ZM250.069 49.208C249.109 49.208 248.101 49.112 247.045 48.92C246.021 48.728 245.061 48.392 244.165 47.912C243.269 47.464 242.533 46.856 241.957 46.088C241.413 45.288 241.141 44.312 241.141 43.16C241.141 42.328 241.301 41.448 241.621 40.52C241.941 39.592 242.405 38.856 243.013 38.312C243.109 38.216 243.221 38.168 243.349 38.168C243.413 38.168 243.445 38.2 243.445 38.264C243.445 38.424 243.269 38.68 242.917 39.032C242.597 39.384 242.437 39.928 242.437 40.664V41.048C242.693 42.648 243.301 43.944 244.261 44.936C245.221 45.928 246.389 46.632 247.765 47.048C249.141 47.496 250.565 47.72 252.037 47.72C252.901 47.72 253.797 47.64 254.725 47.48C255.685 47.32 256.565 47.08 257.365 46.76C259.285 45.96 261.237 44.696 263.221 42.968C265.205 41.24 267.157 39.24 269.077 36.968C270.997 34.664 272.821 32.264 274.549 29.768C276.309 27.272 277.909 24.84 279.349 22.472C280.821 20.104 282.069 18.008 283.093 16.184C283.157 16.056 283.221 15.976 283.285 15.944C280.949 15.336 278.581 14.84 276.181 14.456C273.813 14.072 271.429 13.88 269.029 13.88C267.493 13.88 265.797 14.024 263.941 14.312C262.117 14.568 260.293 15 258.469 15.608C256.645 16.216 254.981 17.016 253.477 18.008C251.973 19 250.757 20.216 249.829 21.656C248.933 23.096 248.485 24.792 248.485 26.744C248.485 27.672 248.581 28.648 248.773 29.672C248.997 30.696 249.413 31.56 250.021 32.264C250.629 32.968 251.525 33.32 252.709 33.32C252.773 33.32 252.853 33.336 252.949 33.368C253.077 33.368 253.141 33.416 253.141 33.512C253.141 33.608 253.029 33.672 252.805 33.704C252.581 33.736 252.437 33.752 252.373 33.752C251.253 33.752 250.165 33.496 249.109 32.984C248.085 32.44 247.237 31.72 246.565 30.824C245.893 29.896 245.557 28.856 245.557 27.704V27.464C245.557 26.152 245.845 24.856 246.421 23.576C247.157 21.848 248.277 20.344 249.781 19.064C251.285 17.784 253.013 16.712 254.965 15.848C256.949 14.984 259.013 14.296 261.157 13.784C263.301 13.24 265.397 12.856 267.445 12.632C269.525 12.376 271.397 12.248 273.061 12.248C276.325 12.248 279.605 12.568 282.901 13.208C286.197 13.848 289.413 14.568 292.549 15.368C293.765 15.688 295.157 16.024 296.725 16.376C298.325 16.696 299.749 16.856 300.997 16.856C301.477 16.856 301.861 16.792 302.149 16.664C302.437 16.536 302.645 16.472 302.773 16.472C302.869 16.472 302.917 16.52 302.917 16.616C302.917 16.744 302.869 16.856 302.773 16.952C302.677 17.016 302.597 17.08 302.533 17.144C301.861 17.56 301.269 17.912 300.757 18.2C300.277 18.488 299.765 18.712 299.221 18.872C298.677 19 297.957 19.064 297.061 19.064C295.429 19.064 293.653 18.792 291.733 18.248C289.845 17.704 288.085 17.224 286.453 16.808C285.301 18.536 284.181 20.296 283.093 22.088C282.005 23.88 280.869 25.64 279.685 27.368C278.341 29.32 276.869 31.32 275.269 33.368C273.669 35.416 271.941 37.384 270.085 39.272C268.261 41.16 266.293 42.856 264.181 44.36C262.069 45.832 259.829 47 257.461 47.864C255.125 48.76 252.661 49.208 250.069 49.208ZM266.821 37.592C266.757 37.592 266.709 37.56 266.677 37.496C266.677 37.432 266.677 37.384 266.677 37.352C266.677 37.16 266.693 36.984 266.725 36.824C266.789 36.632 266.837 36.456 266.869 36.296C267.253 34.856 267.573 33.368 267.829 31.832C268.085 30.264 268.213 28.744 268.213 27.272C268.213 27.016 268.197 26.664 268.165 26.216C268.133 25.768 268.037 25.352 267.877 24.968C267.749 24.584 267.493 24.392 267.109 24.392C266.789 24.392 266.581 24.52 266.485 24.776C266.389 25 266.261 25.112 266.101 25.112C266.005 25.112 265.957 25.064 265.957 24.968C265.957 24.904 265.989 24.808 266.053 24.68C266.341 24.072 266.757 23.496 267.301 22.952C267.845 22.408 268.469 22.136 269.173 22.136C269.749 22.136 270.165 22.328 270.421 22.712C270.709 23.096 270.885 23.56 270.949 24.104C271.045 24.616 271.093 25.096 271.093 25.544C271.093 27.4 270.725 29.272 269.989 31.16C269.253 33.048 268.485 34.824 267.685 36.488C267.653 36.616 267.525 36.84 267.301 37.16C267.109 37.448 266.949 37.592 266.821 37.592ZM291.598 48.92C288.782 48.92 286.478 48.168 284.686 46.664C282.926 45.16 282.046 42.952 282.046 40.04C282.046 38.28 282.366 36.584 283.006 34.952C283.678 33.288 284.414 31.72 285.214 30.248C284.414 29.416 283.71 28.504 283.102 27.512C282.526 26.488 282.238 25.384 282.238 24.2C282.238 22.76 282.67 21.512 283.534 20.456C284.43 19.368 285.55 18.456 286.894 17.72C288.238 16.952 289.63 16.328 291.07 15.848C292.51 15.368 293.79 15.016 294.91 14.792C297.47 14.312 300.03 14.072 302.59 14.072H304.126C305.854 13.464 307.63 13.016 309.454 12.728C311.278 12.44 313.102 12.296 314.926 12.296C315.886 12.296 316.846 12.344 317.806 12.44C318.798 12.504 319.758 12.616 320.686 12.776C321.806 12.968 322.782 13.416 323.614 14.12C324.446 14.824 324.862 15.8 324.862 17.048C324.862 17.272 324.798 17.624 324.67 18.104C324.574 18.552 324.43 18.984 324.238 19.4C324.046 19.784 323.822 19.976 323.566 19.976C323.31 19.976 323.182 19.848 323.182 19.592C323.182 19.432 323.342 19.144 323.662 18.728C323.982 18.312 324.142 17.752 324.142 17.048C324.142 16.184 323.918 15.496 323.47 14.984C323.022 14.44 322.446 14.056 321.742 13.832C321.038 13.576 320.302 13.416 319.534 13.352C318.766 13.256 318.062 13.208 317.422 13.208C316.046 13.208 314.67 13.336 313.294 13.592C311.95 13.816 310.622 14.152 309.31 14.6C310.622 14.792 312.046 15.096 313.582 15.512C315.118 15.896 316.574 16.44 317.95 17.144C319.326 17.848 320.446 18.776 321.31 19.928C322.174 21.048 322.606 22.44 322.606 24.104C322.606 25.48 322.334 26.856 321.79 28.232C321.246 29.576 320.526 30.872 319.63 32.12C318.734 33.368 317.774 34.552 316.75 35.672C315.726 36.76 314.734 37.736 313.774 38.6C314.126 38.568 314.606 38.504 315.214 38.408C315.822 38.28 316.238 38.216 316.462 38.216C316.75 38.216 316.894 38.328 316.894 38.552C316.894 38.712 316.798 38.824 316.606 38.888C315.998 39.048 315.374 39.16 314.734 39.224C314.126 39.288 313.502 39.352 312.862 39.416C311.262 40.792 309.438 42.168 307.39 43.544C305.342 44.92 303.326 45.992 301.342 46.76C299.838 47.368 298.238 47.88 296.542 48.296C294.878 48.712 293.23 48.92 291.598 48.92ZM286.318 28.424C288.078 25.672 290.174 23.176 292.606 20.936C295.07 18.696 297.79 16.872 300.766 15.464C299.774 15.496 298.766 15.592 297.742 15.752C296.75 15.912 295.742 16.12 294.718 16.376C293.79 16.6 292.766 16.952 291.646 17.432C290.558 17.88 289.502 18.456 288.478 19.16C287.486 19.832 286.654 20.632 285.982 21.56C285.342 22.456 285.022 23.48 285.022 24.632C285.022 25.304 285.15 25.976 285.406 26.648C285.694 27.288 285.998 27.88 286.318 28.424ZM310.126 38.696C310.99 37.768 311.902 36.664 312.862 35.384C313.822 34.072 314.734 32.68 315.598 31.208C316.462 29.704 317.166 28.216 317.71 26.744C318.254 25.24 318.526 23.848 318.526 22.568C318.526 21.064 318.11 19.88 317.278 19.016C316.478 18.152 315.438 17.496 314.158 17.048C312.91 16.6 311.598 16.296 310.222 16.136C308.846 15.944 307.614 15.784 306.526 15.656C304.158 16.648 301.838 17.928 299.566 19.496C297.294 21.064 295.198 22.824 293.278 24.776C291.358 26.696 289.71 28.76 288.334 30.968C289.614 32.216 291.134 33.32 292.894 34.28C294.654 35.208 296.526 35.992 298.51 36.632C300.526 37.24 302.526 37.72 304.51 38.072C306.494 38.392 308.366 38.6 310.126 38.696ZM297.022 33.608C296.83 33.608 296.734 33.512 296.734 33.32C296.734 33.064 296.942 32.696 297.358 32.216C297.774 31.704 298.27 31.176 298.846 30.632C299.422 30.088 299.982 29.64 300.526 29.288C301.07 28.904 301.47 28.712 301.726 28.712C301.854 28.712 301.966 28.808 302.062 29C302.222 29.256 302.35 29.512 302.446 29.768C302.574 29.992 302.75 30.232 302.974 30.488C303.134 30.616 303.438 30.792 303.886 31.016C304.334 31.208 304.558 31.368 304.558 31.496C304.558 31.592 304.51 31.672 304.414 31.736C304.318 31.8 304.238 31.864 304.174 31.928C304.046 32.024 303.694 32.136 303.118 32.264C302.542 32.36 301.95 32.456 301.342 32.552C300.766 32.616 300.366 32.664 300.142 32.696C299.63 32.76 299.15 32.888 298.702 33.08C298.286 33.24 297.838 33.4 297.358 33.56C297.294 33.592 297.182 33.608 297.022 33.608ZM293.182 47.384C295.326 47.384 297.342 47.032 299.23 46.328C301.15 45.624 302.942 44.68 304.606 43.496C306.302 42.28 307.87 40.952 309.31 39.512C306.91 39.416 304.398 39.08 301.774 38.504C299.182 37.896 296.654 37.064 294.19 36.008C291.726 34.952 289.518 33.704 287.566 32.264C286.894 33.48 286.286 34.824 285.742 36.296C285.198 37.768 284.926 39.208 284.926 40.616C284.926 42.216 285.31 43.528 286.078 44.552C286.878 45.544 287.902 46.264 289.15 46.712C290.398 47.16 291.742 47.384 293.182 47.384Z" fill="black"/>
</svg>
